<svg xmlns="http://www.w3.org/2000/svg"  viewBox="0 0 50 50" width="50px" height="50px"><path d="M 25.013672 2 A 1.0001 1.0001 0 0 0 24.257812 2.3203125 L 17.041016 10.107422 L 7.1152344 12.443359 L 2.4375 10.105469 C 1.9435 9.8594687 1.3427031 10.058734 1.0957031 10.552734 C 1.0537031 10.639734 -2.220446e-16 12.242 0 15.75 C 0 18.992 1.8451875 20.785438 2.8671875 21.648438 L 3.6015625 22.199219 C 3.7095625 22.280219 3.794375 22.380234 3.859375 22.490234 C 3.868375 22.493234 3.8757656 22.497 3.8847656 22.5 C 3.8777656 22.5 3.8702812 22.498047 3.8632812 22.498047 C 4.0522813 22.822047 4.0502188 23.238406 3.8242188 23.566406 C 3.5202188 24.009406 2.9257031 24.132656 2.4707031 23.847656 C 2.4227031 23.817656 2.0842344 23.604891 1.6152344 23.212891 L 1.6074219 23.205078 C 1.2984219 22.974078 0.9056875 22.934375 0.5546875 23.109375 C 0.2106875 23.281375 0.006953125 23.613094 0.001953125 23.996094 C 0.005953125 24.730094 0.012296875 25.468594 0.029296875 25.808594 C 0.23329687 29.236594 1.320125 34.174078 6.703125 35.455078 A 1.0001 1.0001 0 0 0 6.7617188 35.472656 L 8.5742188 35.900391 L 8.0332031 37.714844 C 7.9542031 37.978844 7.987 38.260047 8.125 38.498047 C 8.262 38.736047 8.4908125 38.907656 8.7578125 38.972656 L 17.853516 41.15625 L 24.277344 47.701172 C 24.465344 47.892172 24.723187 48.001953 24.992188 48.001953 C 25.261187 48.001953 25.516078 47.893172 25.705078 47.701172 L 32.130859 41.15625 L 41.226562 38.972656 C 41.493563 38.908656 41.722375 38.737047 41.859375 38.498047 C 41.997375 38.260047 42.030172 37.978844 41.951172 37.714844 L 41.408203 35.898438 L 43.220703 35.472656 A 1.0001 1.0001 0 0 0 43.294922 35.451172 L 43.296875 35.455078 C 48.679875 34.174078 49.766703 29.236594 49.970703 25.808594 C 49.987703 25.468594 49.994047 24.730094 49.998047 23.996094 C 49.993047 23.613094 49.789313 23.281375 49.445312 23.109375 C 49.094312 22.934375 48.701578 22.974078 48.392578 23.205078 L 48.384766 23.212891 C 47.915766 23.604891 47.577297 23.817656 47.529297 23.847656 C 47.074297 24.132656 46.479781 24.009406 46.175781 23.566406 C 45.949781 23.238406 45.947719 22.822047 46.136719 22.498047 C 46.129719 22.498047 46.122234 22.5 46.115234 22.5 C 46.124234 22.497 46.131625 22.493234 46.140625 22.490234 C 46.205625 22.380234 46.290438 22.280219 46.398438 22.199219 L 47.132812 21.648438 C 48.154812 20.785438 50 18.992 50 15.75 C 50 12.242 48.946297 10.639734 48.904297 10.552734 C 48.657297 10.058734 48.0565 9.8594687 47.5625 10.105469 L 42.878906 12.447266 L 32.939453 10.107422 L 25.724609 2.3203125 A 1.0001 1.0001 0 0 0 25.013672 2 z M 24.990234 4.4707031 L 31.679688 11.689453 A 1.0001 1.0001 0 0 0 32.185547 11.982422 L 41.728516 14.228516 L 38.878906 23.712891 A 1.0001 1.0001 0 0 0 38.878906 24.287109 L 41.728516 33.771484 L 32.185547 36.017578 A 1.0001 1.0001 0 0 0 31.679688 36.310547 L 24.990234 43.529297 L 18.300781 36.310547 A 1.0001 1.0001 0 0 0 17.796875 36.017578 L 8.2539062 33.771484 L 11.103516 24.287109 A 1.0001 1.0001 0 0 0 11.103516 23.712891 L 8.2539062 14.228516 L 17.796875 11.982422 A 1.0001 1.0001 0 0 0 18.300781 11.689453 L 24.990234 4.4707031 z M 24.990234 12 C 18.374662 12 12.990234 17.384428 12.990234 24 L 12.990234 24.003906 C 12.990286 24.021343 12.992057 24.039188 12.992188 24.056641 C 13.023167 30.645979 18.39377 36 24.990234 36 C 31.203549 36 36.329127 31.249683 36.929688 25.191406 C 36.971482 24.792308 36.991286 24.39382 36.990234 24 C 36.990234 17.384428 31.605807 12 24.990234 12 z M 24.990234 14 C 30.524927 14 34.990234 18.465308 34.990234 24 C 34.990234 25.166544 34.78095 26.280577 34.416016 27.320312 C 33.829851 28.725236 32.703653 29.971493 30.576172 30.96875 A 1.0001 1.0001 0 0 0 30.001953 31.802734 L 29.994141 31.927734 A 1.0001 1.0001 0 0 0 29.990234 32 C 29.990234 32.56503 29.555265 33 28.990234 33 L 20.990234 33 C 20.42841 33 19.999039 32.56816 19.994141 32.007812 L 19.998047 31.947266 A 1.0001 1.0001 0 0 0 19.423828 30.96875 C 17.19697 29.924911 16.056582 28.609448 15.492188 27.121094 C 15.170875 26.138782 14.990234 25.09155 14.990234 24 L 14.990234 23.998047 L 14.990234 23.996094 C 14.992359 18.463228 19.456859 14 24.990234 14 z M 21.980469 18.990234 A 1.0001 1.0001 0 0 0 21.283203 20.707031 L 22.283203 21.707031 A 1.0001 1.0001 0 1 0 23.697266 20.292969 L 22.697266 19.292969 A 1.0001 1.0001 0 0 0 21.980469 18.990234 z M 27.970703 18.990234 A 1.0001 1.0001 0 0 0 27.283203 19.292969 L 26.283203 20.292969 A 1.0001 1.0001 0 1 0 27.697266 21.707031 L 28.697266 20.707031 A 1.0001 1.0001 0 0 0 27.970703 18.990234 z M 19.990234 22 A 3 3 0 0 0 16.990234 25 A 3 3 0 0 0 19.990234 28 A 3 3 0 0 0 22.990234 25 A 3 3 0 0 0 19.990234 22 z M 29.990234 22 A 3 3 0 0 0 26.990234 25 A 3 3 0 0 0 29.990234 28 A 3 3 0 0 0 32.990234 25 A 3 3 0 0 0 29.990234 22 z M 24.990234 26 L 22.990234 29 L 26.990234 29 L 24.990234 26 z"/></svg>